<svg xmlns="http://www.w3.org/2000/svg" version="1.1" xmlns:xlink="http://www.w3.org/1999/xlink" xmlns:svgjs="http://svgjs.com/svgjs" width="512" height="512" x="0" y="0" viewBox="0 0 409.604 409" style="enable-background:new 0 0 512 512" xml:space="preserve" class=""><g><path d="M188.055 197.633c76.234-31.57 140.636-91.32 176.863-171.95C299.27-25.163 180.402 2.204 91.105 91.485 6.371 176.164-22.496 287.5 18.242 354.714c37.266-73.1 98.332-127.503 169.813-157.081zm0 0" fill="#5b2f1f" data-original="#000000" class=""></path><path d="M389.77 53.016c-39.575 79.62-105.563 141.765-188.63 176.183-71.148 29.434-126.898 83.887-158.484 153.637 65.184 53.078 185.598 26.176 275.852-64.04 85.812-85.784 114.312-198.858 71.262-265.78zm0 0" fill="#5b2f1f" data-original="#000000" class=""></path></g></svg>